<svg xmlns="http://www.w3.org/2000/svg" viewBox="0 0 233.4 36.33"><defs><style>.cls-1{fill:#ffffff;}</style></defs><g id="Layer_2" data-name="Layer 2"><g id="Layer_1-2" data-name="Layer 1"><path class="cls-1" d="M25.55,3.58h2.89v5h5.31v-5h2.89V16.71H33.75V11.05H28.44v5.66H25.55Z"/><path class="cls-1" d="M41.5,5.73H38.89V3.58H41.5ZM38.89,7.2H41.5v9.51H38.89Z"/><path class="cls-1" d="M46.77,7.2h1.91V9H46.77v4.71c0,.88.22,1.1,1.1,1.1a4.51,4.51,0,0,0,.81-.07v2a10.5,10.5,0,0,1-1.53.09c-1.6,0-3-.37-3-2.26V9H42.57V7.2h1.58V4.35h2.62Z"/><path class="cls-1" d="M49.9,10.13C50,7.68,52.23,7,54.36,7c1.9,0,4.18.42,4.18,2.7v4.94a4.88,4.88,0,0,0,.33,2.12H56.22a4.16,4.16,0,0,1-.18-.92A4.38,4.38,0,0,1,52.84,17c-1.8,0-3.24-.91-3.24-2.85,0-2.15,1.62-2.67,3.24-2.89s3.09-.18,3.09-1.25-.78-1.29-1.69-1.29-1.64.41-1.73,1.44Zm6,1.93a5.33,5.33,0,0,1-2.17.55c-.81.16-1.55.44-1.55,1.4s.76,1.21,1.6,1.21A2,2,0,0,0,55.93,13Z"/><path class="cls-1" d="M66.83,10.55A1.77,1.77,0,0,0,64.9,8.91c-1.67,0-2.22,1.69-2.22,3.09s.53,3,2.17,3a2,2,0,0,0,2.07-1.93h2.52A4.24,4.24,0,0,1,64.86,17a4.62,4.62,0,0,1-4.79-4.88c0-3,1.76-5.14,4.85-5.14,2.24,0,4.3,1.17,4.47,3.6Z"/><path class="cls-1" d="M70.91,3.58h2.61V8.53h0A3.33,3.33,0,0,1,76.35,7c2.77,0,3.47,1.56,3.47,3.91v5.85H77.21V11.34c0-1.56-.46-2.33-1.67-2.33-1.42,0-2,.79-2,2.72v5H70.91Z"/><path class="cls-1" d="M84.44,5.73H81.83V3.58h2.61ZM81.83,7.2h2.61v9.51H81.83Z"/><path class="cls-1" d="M100.57,8A2.84,2.84,0,0,0,97.7,5.7c-2.59,0-3.57,2.2-3.57,4.5s1,4.39,3.57,4.39c1.76,0,2.76-1.21,3-2.94h2.79A5.54,5.54,0,0,1,97.7,17c-4.06,0-6.45-3-6.45-6.82s2.39-6.93,6.45-6.93C100.59,3.27,103,5,103.36,8Z"/><path class="cls-1" d="M104.82,10.13C105,7.68,107.16,7,109.29,7c1.89,0,4.17.42,4.17,2.7v4.94a4.88,4.88,0,0,0,.33,2.12h-2.64a3.68,3.68,0,0,1-.19-.92,4.38,4.38,0,0,1-3.2,1.18c-1.8,0-3.23-.91-3.23-2.85,0-2.15,1.62-2.67,3.23-2.89s3.09-.18,3.09-1.25-.77-1.29-1.69-1.29-1.64.41-1.73,1.44Zm6,1.93a5.33,5.33,0,0,1-2.17.55c-.81.16-1.54.44-1.54,1.4s.75,1.21,1.6,1.21A1.94,1.94,0,0,0,110.85,13Z"/><path class="cls-1" d="M115.48,7.2H118V8.42h0A3.15,3.15,0,0,1,120.83,7c3,0,4.32,2.4,4.32,5.11,0,2.53-1.4,4.91-4.18,4.91a3.38,3.38,0,0,1-2.85-1.44h0v4.52h-2.61ZM122.54,12c0-1.5-.61-3.07-2.28-3.07S118,10.44,118,12s.58,3,2.27,3S122.54,13.53,122.54,12Z"/><path class="cls-1" d="M129.36,5.73h-2.61V3.58h2.61ZM126.75,7.2h2.61v9.51h-2.61Z"/><path class="cls-1" d="M134.63,7.2h1.91V9h-1.91v4.71c0,.88.22,1.1,1.1,1.1a4.51,4.51,0,0,0,.81-.07v2a10.5,10.5,0,0,1-1.53.09c-1.6,0-3-.37-3-2.26V9h-1.58V7.2H132V4.35h2.62Z"/><path class="cls-1" d="M137.76,10.13C137.9,7.68,140.09,7,142.22,7c1.9,0,4.18.42,4.18,2.7v4.94a4.88,4.88,0,0,0,.33,2.12h-2.65a4.16,4.16,0,0,1-.18-.92A4.38,4.38,0,0,1,140.7,17c-1.8,0-3.24-.91-3.24-2.85,0-2.15,1.62-2.67,3.24-2.89s3.09-.18,3.09-1.25S143,8.69,142.1,8.69s-1.64.41-1.73,1.44Zm6,1.93a5.33,5.33,0,0,1-2.17.55c-.81.16-1.55.44-1.55,1.4s.76,1.21,1.6,1.21A2,2,0,0,0,143.79,13Z"/><path class="cls-1" d="M148.44,3.58h2.61V16.71h-2.61Z"/><path class="cls-1" d="M162.72,3.27a18,18,0,0,0-2,8.33,18.41,18.41,0,0,0,2,8.45h-2.16a16.24,16.24,0,0,1-2.43-8.27,15.94,15.94,0,0,1,2.43-8.51Z"/><path class="cls-1" d="M174.86,11.74c0,3.55-2.09,5.28-5.6,5.28s-5.59-1.71-5.59-5.28V3.58h2.88v8.16c0,1.44.37,2.85,2.71,2.85,2.06,0,2.72-.9,2.72-2.85V3.58h2.88Z"/><path class="cls-1" d="M177.25,3.58h2.88V9l5.13-5.44h3.61l-5.13,5.19,5.62,7.94h-3.62l-4-5.9-1.66,1.67v4.23h-2.88Z"/><path class="cls-1" d="M188.72,20.05a17.82,17.82,0,0,0,2-8.31,18.59,18.59,0,0,0-2-8.47h2.17a16.36,16.36,0,0,1,2.43,8.29,15.83,15.83,0,0,1-2.43,8.49Z"/><path class="cls-1" d="M200.23,3.58h5.92c3.27,0,4.54,2.08,4.54,4.21S209.42,12,206.15,12h-3v4.71h-2.89Zm2.89,6.18h2.24c1.34,0,2.54-.29,2.54-2s-1.2-2-2.54-2h-2.24Z"/><path class="cls-1" d="M211.72,3.58h2.89v10.7H221v2.43h-9.29Z"/><path class="cls-1" d="M230.49,8a2.83,2.83,0,0,0-2.86-2.29c-2.6,0-3.57,2.2-3.57,4.5s1,4.39,3.57,4.39c1.76,0,2.75-1.21,3-2.94h2.8A5.55,5.55,0,0,1,227.63,17c-4.07,0-6.46-3-6.46-6.82s2.39-6.93,6.46-6.93c2.88,0,5.31,1.69,5.66,4.72Z"/><path class="cls-1" d="M10.36,36H7.11L2.84,22.89h3l2.92,9.23h0l3-9.23h3Z"/><path class="cls-1" d="M16.88,31.9c.07,1.65.88,2.4,2.33,2.4a2.15,2.15,0,0,0,2.06-1.23h2.3a4.27,4.27,0,0,1-4.45,3.2,4.64,4.64,0,0,1-4.85-5,4.76,4.76,0,0,1,4.85-5c3.23,0,4.8,2.72,4.61,5.65Zm4.24-1.66c-.24-1.32-.81-2-2.07-2a2.05,2.05,0,0,0-2.17,2Z"/><path class="cls-1" d="M25.22,22.89h2.61v4.94h.06a3.35,3.35,0,0,1,2.77-1.58c2.78,0,3.48,1.56,3.48,3.92V36H31.53V30.65c0-1.57-.46-2.34-1.67-2.34-1.42,0-2,.79-2,2.72v5H25.22Z"/><path class="cls-1" d="M38.76,25H36.15V22.89h2.61Zm-2.61,1.47h2.61V36H36.15Z"/><path class="cls-1" d="M47.16,29.86a1.77,1.77,0,0,0-1.93-1.64c-1.67,0-2.22,1.69-2.22,3.09s.53,3,2.17,3a2,2,0,0,0,2.07-1.93h2.52a4.24,4.24,0,0,1-4.58,3.9A4.61,4.61,0,0,1,40.4,31.4c0-3,1.76-5.15,4.85-5.15,2.24,0,4.3,1.18,4.47,3.61Z"/><path class="cls-1" d="M51.26,22.89h2.61V36H51.26Z"/><path class="cls-1" d="M58,31.9c.08,1.65.88,2.4,2.34,2.4a2.16,2.16,0,0,0,2.06-1.23h2.29a4.26,4.26,0,0,1-4.45,3.2,4.64,4.64,0,0,1-4.85-5,4.77,4.77,0,0,1,4.85-5c3.24,0,4.8,2.72,4.62,5.65Zm4.25-1.66c-.24-1.32-.81-2-2.08-2a2.06,2.06,0,0,0-2.17,2Z"/><path class="cls-1" d="M73.73,31.66c0,1.74,1.36,2.42,2.9,2.42,1,0,2.56-.29,2.56-1.63s-2-1.66-3.9-2.17S71.37,29,71.37,26.55c0-2.69,2.54-4,4.91-4,2.74,0,5.26,1.19,5.26,4.22h-2.8c-.09-1.58-1.21-2-2.59-2-.92,0-2,.38-2,1.49s.62,1.14,3.91,2c1,.24,3.9.85,3.9,3.83,0,2.4-1.89,4.21-5.46,4.21-2.91,0-5.63-1.44-5.59-4.67Z"/><path class="cls-1" d="M88,26.25a4.67,4.67,0,0,1,4.93,5,4.92,4.92,0,1,1-9.84,0A4.66,4.66,0,0,1,88,26.25Zm0,8c1.78,0,2.32-1.52,2.32-3s-.54-3.05-2.32-3.05-2.3,1.53-2.3,3.05S86.21,34.3,88,34.3Z"/><path class="cls-1" d="M94.53,22.89h2.61V36H94.53Z"/><path class="cls-1" d="M108.05,36h-2.48V34.69h-.06a3.37,3.37,0,0,1-2.9,1.58c-2.78,0-3.48-1.56-3.48-3.91V26.51h2.61v5.37c0,1.56.46,2.33,1.68,2.33,1.41,0,2-.79,2-2.72v-5h2.61Z"/><path class="cls-1" d="M113.3,26.51h1.91v1.75H113.3V33c0,.88.22,1.11,1.1,1.11a3.65,3.65,0,0,0,.81-.08v2a9.21,9.21,0,0,1-1.52.09c-1.6,0-3-.36-3-2.26v-5.6h-1.58V26.51h1.58V23.66h2.61Z"/><path class="cls-1" d="M119.29,25h-2.62V22.89h2.62Zm-2.62,1.47h2.62V36h-2.62Z"/><path class="cls-1" d="M125.83,26.25a4.67,4.67,0,0,1,4.93,5,4.92,4.92,0,1,1-9.84,0A4.66,4.66,0,0,1,125.83,26.25Zm0,8c1.78,0,2.32-1.52,2.32-3s-.54-3.05-2.32-3.05-2.3,1.53-2.3,3.05S124.07,34.3,125.83,34.3Z"/><path class="cls-1" d="M132.37,26.51h2.48v1.32h.05a3.43,3.43,0,0,1,2.91-1.58c2.77,0,3.47,1.56,3.47,3.92V36h-2.61V30.65c0-1.57-.46-2.34-1.67-2.34-1.42,0-2,.79-2,2.72v5h-2.61Z"/><path class="cls-1" d="M145.22,32.93c0,1.14,1,1.59,2,1.59.76,0,1.71-.29,1.71-1.21s-1.08-1.06-3-1.47c-1.5-.33-3-.86-3-2.54,0-2.42,2.1-3.05,4.14-3.05s4,.7,4.19,3h-2.48c-.08-1-.85-1.29-1.79-1.29-.59,0-1.45.11-1.45.88,0,.94,1.47,1.07,3,1.42s3,.9,3,2.66c0,2.5-2.16,3.31-4.33,3.31s-4.36-.83-4.47-3.34Z"/><path class="cls-1" d="M15.84,13.4a6.67,6.67,0,0,0,0-6.62H13.79a5,5,0,0,1,1.28,3.32,5,5,0,0,1-1.28,3.3Zm-9.44,0a4.85,4.85,0,0,1-1.27-3.3A4.92,4.92,0,0,1,6.4,6.78h-2a6.67,6.67,0,0,0,0,6.62Zm3.69-1.65A1.66,1.66,0,1,0,8.44,10.1a1.65,1.65,0,0,0,1.65,1.65m0,5a6,6,0,0,0,4.39-1.66H5.71a6.65,6.65,0,0,0,4.38,1.66m.84-11.59h3.55a6.59,6.59,0,0,0-3.55-1.61Zm-5.22,0H9.27V3.52A6.66,6.66,0,0,0,5.71,5.13m4.38,8.27a3.31,3.31,0,1,0-3.3-3.3,3.3,3.3,0,0,0,3.3,3.3M12,2a8.29,8.29,0,0,1,6.15,6.15,2.31,2.31,0,0,0,2,1.91,2.28,2.28,0,0,0-2,1.9A8.29,8.29,0,0,1,12,18.15a2.31,2.31,0,0,0-1.91,2h0a2.31,2.31,0,0,0-1.92-2A8.26,8.26,0,0,1,2.05,12a2.3,2.3,0,0,0-2-1.9A2.33,2.33,0,0,0,2.05,8.19,8.26,8.26,0,0,1,8.18,2a2.3,2.3,0,0,0,1.91-2A2.3,2.3,0,0,0,12,2"/></g></g></svg>