<svg xmlns="http://www.w3.org/2000/svg" viewBox="0 0 137.79 39.52"><defs><style>.cls-1{fill:#ffffff;}.cls-2{fill:#ffffff;}</style></defs><g id="Layer_2" data-name="Layer 2"><g id="Layer_1-2" data-name="Layer 1"><path class="cls-1" d="M4.39,24.33,0,24.73v.65H.13c1.78.21,1.78.21,1.78,1.49V36.1H4.57V24.31Z"/><path class="cls-1" d="M13.73,27.81a3.72,3.72,0,0,0-3.08,1.78V27.78l-.17,0-3.58.56V29h.16c1.13,0,1.37.27,1.37,1.32V36.1h2.22V31.85c0-1.12,1.07-2.58,2.2-2.58S14,30.15,14,31.6v4.5H16.2V30.32a2.25,2.25,0,0,0-2.47-2.51"/><path class="cls-1" d="M22.43,31c-.87-.44-1.63-.81-1.63-1.42s.82-.76,1.18-.76a4.07,4.07,0,0,1,2.08.72l.35.21V28.13l-.28-.07a9.91,9.91,0,0,0-2-.25c-2.09,0-3.35.9-3.35,2.4s1.3,2,2.45,2.55c.89.44,1.74.86,1.74,1.5s-.55,1-1.49,1A4.77,4.77,0,0,1,19,34.38l-.24-.15V36L19,36a10.59,10.59,0,0,0,2.43.29c2.26,0,3.6-.92,3.6-2.47S23.62,31.62,22.43,31"/><path class="cls-1" d="M31.58,29c1.52,0,1.7,1.65,1.7,2.89,0,2.12-.55,3.14-1.68,3.14-1.45,0-1.75-1.35-1.75-2.48v-.7C29.85,31,30,29,31.58,29m.63-1.22A3.23,3.23,0,0,0,29.87,29V27.78l-.18,0-3.56.56V29h.16c1.11,0,1.33.25,1.33,1.32v9.2h2.23V35.33a2.72,2.72,0,0,0,2.29,1c2.32,0,3.55-1.51,3.55-4.36,0-2.61-1.26-4.11-3.48-4.11"/><path class="cls-1" d="M37.25,28.37V29h.15c1.1,0,1.32.25,1.32,1.32V36.1h2.22V27.78l-.18,0Z"/><path class="cls-1" d="M39.85,26.8a1.32,1.32,0,0,0,1.4-1.21,1.38,1.38,0,0,0-2.74,0,1.29,1.29,0,0,0,1.34,1.21"/><path class="cls-1" d="M50.26,29.65V27.92l-.13,0a6.5,6.5,0,0,0-1.06-.09,2.52,2.52,0,0,0-2.26,1.65V27.78l-.19,0-3.55.56V29h.15c1.13,0,1.36.25,1.36,1.32V36.1h2.23V31.94a2.14,2.14,0,0,1,2.32-2.34,3.17,3.17,0,0,1,.77.15l.36.1Z"/><path class="cls-1" d="M55.3,28.7c1.19,0,1.5.86,1.53,1.64h-3.2A1.68,1.68,0,0,1,55.3,28.7m3.76,2.47c0-2.23-1.24-3.36-3.68-3.36-2.77,0-4.17,1.33-4.17,4,0,2.83,1.8,4.51,4.83,4.51a8.81,8.81,0,0,0,2.72-.45l.13,0V34.72l-.21.08a6,6,0,0,1-1.74.26c-2.37,0-3.26-2-3.31-3.73h5.43Z"/><path class="cls-1" d="M79.35,27.81a3.52,3.52,0,0,0-3,1.78V24l-.18,0-3.54.43v.63h.16c1.1,0,1.34.29,1.34,1.36V36.1H76.3V32a2.57,2.57,0,0,1,2.1-2.69c1.24,0,1.24.93,1.24,1.75V36.1h2.22V30.76c0-.88,0-3-2.51-3"/><path class="cls-1" d="M88.1,28.7c1.19,0,1.49.86,1.53,1.64h-3.2A1.68,1.68,0,0,1,88.1,28.7m3.76,2.47c0-2.23-1.24-3.36-3.69-3.36-2.76,0-4.17,1.33-4.17,4,0,2.83,1.81,4.51,4.85,4.51a8.79,8.79,0,0,0,2.71-.45l.13,0V34.72l-.21.08a6,6,0,0,1-1.74.26c-2.38,0-3.26-2-3.31-3.73h5.43Z"/><path class="cls-1" d="M66.88,25.48V28h-1.5v1h1.5v5c0,2.14,1.38,2.31,3.06,2.31a8.61,8.61,0,0,0,1.3-.12l.14,0v-1l-.2,0a2.69,2.69,0,0,1-.67.06c-1.34,0-1.41-.39-1.41-1.53V29h2.51V28H69.1V25.48Z"/><path class="cls-1" d="M110.68,24.5h-2.24v8.81l-5.8-8.81H97.49v.67l.45.07c1.35.24,1.46.25,1.46,1.57V36.1h2.39V26.88l6.1,9.22h2.94V24.5Z"/><path class="cls-1" d="M117,28.7c1.2,0,1.5.86,1.54,1.65h-3.21A1.68,1.68,0,0,1,117,28.7m3.77,2.47c0-2.23-1.24-3.36-3.69-3.36-2.77,0-4.17,1.34-4.17,4,0,2.82,1.8,4.5,4.83,4.5a8.84,8.84,0,0,0,2.72-.44l.14-.05V34.72l-.22.08a5.84,5.84,0,0,1-1.73.27c-2.38,0-3.27-2-3.32-3.73h5.44Z"/><path class="cls-1" d="M133.06,25.48V28h-1.49v1h1.49v5c0,2.14,1.39,2.31,3.06,2.31a8.61,8.61,0,0,0,1.3-.12l.14,0v-1l-.2,0a2.69,2.69,0,0,1-.67.06c-1.34,0-1.41-.39-1.41-1.53V29h2.51V28h-2.51V25.48Z"/><path class="cls-1" d="M128.58,30.64,130.86,28h-2.35l-2.17,2.52L124.43,28H121v.64h.15a2.27,2.27,0,0,1,2.13,1.23l1.4,1.85-2.28,2.64h2.35l1-1.19,2.2,2.93h2.64l-4.18-5.47Z"/><polygon class="cls-2" points="133.03 25.48 130.67 25.48 133.53 22.18 135.88 22.18 133.03 25.48"/><polygon class="cls-1" points="106.21 0.46 106.21 7.92 116.19 7.92 116.19 0.46 121.13 0.46 121.13 19.11 116.19 19.11 116.19 10.9 106.21 10.9 106.21 19.11 101.28 19.11 101.28 0.46 106.21 0.46"/><polygon class="cls-1" points="59.34 0.46 59.34 3.63 51.79 3.63 51.79 19.11 46.85 19.11 46.85 3.63 39.3 3.63 39.3 0.46 59.34 0.46"/><path class="cls-1" d="M66.79,3.63l-3.43,8.49h6.87ZM78.54,19.11H73l-1.62-4H62.16l-1.61,4h-5.5L63.76.46h6.06Z"/><rect class="cls-1" x="125.04" y="0.46" width="4.94" height="18.65"/><polygon class="cls-1" points="13.76 0.46 13.76 7.92 23.73 7.92 23.73 0.46 28.67 0.46 28.67 19.11 23.73 19.11 23.73 10.9 13.76 10.9 13.76 19.11 8.82 19.11 8.82 0.46 13.76 0.46"/><rect class="cls-1" x="32.59" y="0.46" width="4.93" height="18.65"/><path class="cls-1" d="M78.36,14a12,12,0,0,1-.66-4A10.6,10.6,0,0,1,79,4.53,8.23,8.23,0,0,1,83.22,1a15.35,15.35,0,0,1,5.47-1,15.67,15.67,0,0,1,6.24,1.31,6,6,0,0,1,3.52,4.31,9.06,9.06,0,0,1,.17,1.18H93.44a4.77,4.77,0,0,0-.26-1.43,3.6,3.6,0,0,0-2.32-2.15,7.3,7.3,0,0,0-4.61.09,4.45,4.45,0,0,0-2.7,2.74A11.78,11.78,0,0,0,82.87,10a12.48,12.48,0,0,0,.47,3.27,4.47,4.47,0,0,0,2.7,3,7.53,7.53,0,0,0,4.94.14,3.6,3.6,0,0,0,2.16-1.94,4.89,4.89,0,0,0,.4-2h5.21a11.1,11.1,0,0,1-.25,1.77,6,6,0,0,1-3.45,4.11,16.43,16.43,0,0,1-6.36,1.3,16.81,16.81,0,0,1-5-.77A8.15,8.15,0,0,1,78.36,14"/></g></g></svg>